<svg xmlns="http://www.w3.org/2000/svg"><style>:root svg:not(:target){display:none}</style><svg aria-label="Cart." fill="none" id="cart-icon" viewBox="0 0 22 20"><path d="M7.637 20c.893 0 1.617-.685 1.617-1.53 0-.844-.724-1.529-1.617-1.529s-1.616.685-1.616 1.53c0 .844.723 1.529 1.616 1.529ZM17.459 20c.893 0 1.617-.685 1.617-1.53 0-.844-.724-1.529-1.617-1.529s-1.617.685-1.617 1.53c0 .844.724 1.529 1.617 1.529ZM21.827 1.9a.713.713 0 0 0-.246-.185.752.752 0 0 0-.307-.067H6.315l.467 1.36h13.551l-1.918 8.156H7.637L4.354 1.328a.675.675 0 0 0-.18-.276.728.728 0 0 0-.295-.165L.934.03a.76.76 0 0 0-.55.05.693.693 0 0 0-.352.402.65.65 0 0 0 .052.52c.09.16.243.28.426.333l2.579.748 3.298 9.856-1.178.91-.094.089a1.754 1.754 0 0 0-.467 1.142c-.01.42.134.832.41 1.162.196.225.444.404.726.522s.59.172.898.158h11.991a.74.74 0 0 0 .508-.2c.135-.127.21-.3.21-.48a.662.662 0 0 0-.21-.48.74.74 0 0 0-.508-.2H6.567a.502.502 0 0 1-.234-.066.469.469 0 0 1-.17-.166.436.436 0 0 1 .001-.447l1.732-1.36h11.093a.746.746 0 0 0 .46-.143.677.677 0 0 0 .259-.387l2.277-9.516a.643.643 0 0 0-.158-.578Z" fill="currentColor"></path></svg><svg aria-label="High English main logo." fill="none" id="logotype" viewBox="0 0 60 62"><path d="M23.486 32.942 30 36.416l6.514-3.474c2.375-1.64 3.792-4.318 3.792-7.173V13.927c0-.84-.578-1.573-1.405-1.782l-3.123-.795c-3.78-.96-7.776-.96-11.556 0l-3.123.795a1.846 1.846 0 0 0-1.405 1.782v11.842c0 2.855 1.417 5.532 3.792 7.173ZM30 38.7l-7.634-4.079c-2.953-2.013-4.715-5.322-4.715-8.852V13.927c0-1.755 1.207-3.286 2.936-3.725l3.122-.795a25.602 25.602 0 0 1 12.581 0l3.123.795c1.729.439 2.936 1.97 2.936 3.725v11.842c0 3.53-1.763 6.84-4.715 8.852l-.095.058L30 38.699ZM22.51 44.396s.032-.1.066-.272a4.61 4.61 0 0 0 .02-1.682 4.154 4.154 0 0 0-.13-.535 3.621 3.621 0 0 0-.218-.545c-.051-.1-.103-.2-.158-.295a4.51 4.51 0 0 0-.171-.276 5.802 5.802 0 0 0-.368-.502c-.065-.075-.128-.153-.191-.225a6.067 6.067 0 0 0-.191-.207c-.064-.065-.126-.131-.188-.192a5.827 5.827 0 0 0-.181-.173l-.172-.157a7.767 7.767 0 0 0-.43-.354c-.152-.12-.248-.18-.248-.18s-.048.107-.11.295a5.488 5.488 0 0 0-.262 1.304 4.316 4.316 0 0 0 .09 1.21c.05.212.12.427.214.643.17.383.42.718.7.995.138.142.286.264.434.377.074.056.148.109.221.16a6.946 6.946 0 0 0 .53.308l.096.047a6.873 6.873 0 0 0 .465.197c.038.014.071.025.098.033.054.018.084.026.084.026ZM15.549 46.634a7.374 7.374 0 0 0 .871.327c.09.028.184.055.284.083l.153.042.16.038c.11.025.223.048.34.07.116.023.235.045.359.06.123.017.249.031.376.043.127.011.256.021.388.023.13.004.263.003.395-.001a5.528 5.528 0 0 0 .79-.086 3.448 3.448 0 0 0 1.005-.335c.187-.096.354-.209.502-.324a3.47 3.47 0 0 0 .693-.728c.17-.24.286-.461.359-.622.073-.16.104-.261.104-.261l-.085-.026-.24-.065a6.211 6.211 0 0 0-.367-.085c-.07-.014-.145-.03-.223-.044a7.151 7.151 0 0 0-.512-.08 6.876 6.876 0 0 0-.888-.068 5.39 5.39 0 0 0-1.304.13 5.873 5.873 0 0 0-1.87.796 6.202 6.202 0 0 0-.453.318c-.273.21-.483.408-.624.554-.141.147-.213.241-.213.241ZM18.236 42.638s.051-.093.117-.256c.066-.164.148-.398.213-.68.132-.565.196-1.321-.021-2.096a5.623 5.623 0 0 0-.487-1.18 6.16 6.16 0 0 0-.147-.254 7.076 7.076 0 0 0-.298-.461c-.05-.07-.097-.14-.145-.205a8.17 8.17 0 0 0-.498-.609c-.128-.145-.21-.224-.21-.224s-.068.098-.164.271a5.533 5.533 0 0 0-.34.734c-.229.614-.418 1.465-.204 2.38.05.202.117.4.203.584a3.9 3.9 0 0 0 .299.52c.113.16.233.31.357.45a5.498 5.498 0 0 0 .563.523 5.95 5.95 0 0 0 .477.34c.175.107.285.163.285.163ZM10.98 43.588s.132.096.367.24a8.625 8.625 0 0 0 1.646.758 7.9 7.9 0 0 0 .36.11 7.582 7.582 0 0 0 .765.162c.13.019.264.033.396.043a4.757 4.757 0 0 0 .795-.007 3.22 3.22 0 0 0 1.206-.356c.166-.086.318-.184.455-.285a3.85 3.85 0 0 0 .831-.853c.102-.145.151-.238.151-.238s-.11-.06-.303-.148c-.097-.042-.211-.096-.344-.15a8.02 8.02 0 0 0-.212-.084l-.233-.086a7.142 7.142 0 0 0-.527-.167 5.873 5.873 0 0 0-.59-.143 5.377 5.377 0 0 0-1.304-.107 6.146 6.146 0 0 0-3.206 1.113c-.165.119-.254.198-.254.198ZM14.361 40.141s.067-.081.163-.23a4.642 4.642 0 0 0 .708-2.11 3.77 3.77 0 0 0-.005-.585 5.688 5.688 0 0 0-.26-1.247c-.06-.193-.13-.37-.2-.54a6.769 6.769 0 0 0-.212-.471 5.782 5.782 0 0 0-.203-.39 6.062 6.062 0 0 0-.171-.3c-.103-.162-.167-.256-.167-.256s-.084.083-.212.237a5.423 5.423 0 0 0-.468.66c-.169.281-.341.623-.465 1.012-.12.386-.2.825-.176 1.292a2.951 2.951 0 0 0 .178.9 3.902 3.902 0 0 0 .379.78 5.286 5.286 0 0 0 .303.433 4.951 4.951 0 0 0 .74.761c.043.036.068.054.068.054ZM7.05 39.779s.111.119.318.3c.103.089.228.197.374.312.148.114.315.236.499.361a7.444 7.444 0 0 0 1.292.697c.24.1.494.184.749.252.257.066.52.111.782.135a3.336 3.336 0 0 0 1.253-.135c.363-.113.668-.273.913-.436a3.86 3.86 0 0 0 .562-.452c.127-.124.193-.207.193-.207l-.07-.054a8.265 8.265 0 0 0-.51-.355 6.955 6.955 0 0 0-.407-.247 6.868 6.868 0 0 0-.486-.26 8.161 8.161 0 0 0-.553-.245 7.058 7.058 0 0 0-.608-.204 4.714 4.714 0 0 0-.324-.077 4.564 4.564 0 0 0-.331-.057 5.931 5.931 0 0 0-1.418-.012 6.36 6.36 0 0 0-1.158.236c-.332.101-.6.212-.784.298-.185.087-.286.15-.286.15ZM11.015 36.992s.08-.068.202-.198a4.717 4.717 0 0 0 .913-1.422 4.122 4.122 0 0 0 .278-1.1 5.684 5.684 0 0 0-.025-1.273 7.799 7.799 0 0 0-.215-1.067c-.045-.152-.084-.296-.126-.42a6.471 6.471 0 0 0-.061-.174l-.054-.15a3.454 3.454 0 0 0-.116-.281s-.098.067-.251.195a5.553 5.553 0 0 0-.917.978 4.572 4.572 0 0 0-.311.497 3.77 3.77 0 0 0-.416 1.24 3.18 3.18 0 0 0 .01.915 3.899 3.899 0 0 0 .227.835c.033.086.066.17.104.25a5.028 5.028 0 0 0 .551.923c.06.082.114.144.15.187l.057.066Z" fill="currentColor"></path><path d="M3.89 35.325s.091.135.258.352c.042.054.088.114.14.176.053.062.11.129.171.198.124.139.262.293.423.446.317.31.705.636 1.142.918.437.282.925.517 1.434.655.23.06.449.095.658.11.21.012.411.004.6-.019.376-.045.704-.147.978-.265a3.97 3.97 0 0 0 .636-.345c.148-.1.228-.169.228-.169s-.02-.024-.059-.066c-.038-.043-.097-.102-.17-.178a9.258 9.258 0 0 0-.827-.746c-.072-.056-.145-.116-.223-.173a8.184 8.184 0 0 0-.498-.34A5.58 5.58 0 0 0 7.6 35.32a5.463 5.463 0 0 0-.712-.18 6.38 6.38 0 0 0-.677-.088 6.303 6.303 0 0 0-.629-.014 6.26 6.26 0 0 0-1.381.19c-.199.052-.31.096-.31.096Z" fill="currrentColor"></path><path d="M8.308 33.298s.092-.053.236-.158a4.71 4.71 0 0 0 1.432-1.719 3.78 3.78 0 0 0 .112-.265c.036-.092.068-.186.097-.282a5.537 5.537 0 0 0 .214-1.254c.013-.2.013-.39.013-.573-.002-.182-.015-.353-.025-.513-.01-.16-.03-.305-.046-.435a5.392 5.392 0 0 0-.094-.559l-.017-.078s-.11.049-.284.147a5.663 5.663 0 0 0-.68.449c-.262.202-.546.46-.805.778a4 4 0 0 0-.513.821 3.41 3.41 0 0 0-.126.32c-.274.795-.167 1.646.028 2.275a4.955 4.955 0 0 0 .23.61c.024.055.05.105.072.15.092.182.156.286.156.286ZM1.617 30.372s.015.037.046.105c.03.069.076.167.14.288.063.12.142.265.235.425.093.16.208.332.333.514a7.226 7.226 0 0 0 .952 1.11c.186.18.393.346.607.5.213.154.444.29.68.403a3.37 3.37 0 0 0 2.232.232 3.92 3.92 0 0 0 .689-.225c.163-.07.255-.124.255-.124s-.06-.11-.178-.282l-.099-.142a8.603 8.603 0 0 0-.406-.537c-.435-.53-1.043-1.17-1.839-1.6a5.88 5.88 0 0 0-.666-.306 6.241 6.241 0 0 0-2.659-.399c-.204.015-.322.038-.322.038ZM6.338 29.179s.1-.035.26-.113c.161-.077.381-.197.622-.363.243-.167.506-.38.753-.64.244-.26.482-.57.663-.927.102-.2.192-.403.263-.603.035-.1.07-.2.1-.298a7.696 7.696 0 0 0 .274-1.363c.016-.16.031-.306.038-.438.009-.131.008-.246.012-.342.005-.192-.004-.305-.004-.305s-.116.029-.306.093a5.682 5.682 0 0 0-1.215.587 4.67 4.67 0 0 0-.705.565 4.161 4.161 0 0 0-.22.238 3.205 3.205 0 0 0-.72 1.415 3.809 3.809 0 0 0-.095.859c-.001.093 0 .183.004.27a5.446 5.446 0 0 0 .091.705c.028.135.058.253.085.351a3.037 3.037 0 0 0 .1.309ZM.309 25.096a7.022 7.022 0 0 0 .263.878c.063.173.136.365.23.565.18.403.422.844.726 1.262.077.104.157.208.24.308.084.1.17.199.263.293.185.19.38.366.593.52.384.276.769.441 1.14.532.368.091.713.111 1.009.1.298-.013.546-.056.72-.097.175-.04.275-.076.275-.076l-.03-.083c-.023-.052-.052-.13-.092-.226a6.322 6.322 0 0 0-.154-.338c-.063-.128-.13-.271-.213-.42a7.83 7.83 0 0 0-.132-.231 5.863 5.863 0 0 0-.144-.24 8.084 8.084 0 0 0-.339-.495 5.092 5.092 0 0 0-.301-.368l-.108-.12a5.374 5.374 0 0 0-1.385-1.045 6.028 6.028 0 0 0-1.412-.547 5.773 5.773 0 0 0-.825-.152c-.204-.021-.324-.02-.324-.02ZM5.172 24.774s.106-.017.278-.064c.173-.047.412-.125.68-.245.27-.12.568-.282.857-.493a4.173 4.173 0 0 0 .634-.565 3.773 3.773 0 0 0 .193-.23c.14-.178.26-.362.37-.546a5.4 5.4 0 0 0 .288-.552 5.63 5.63 0 0 0 .289-.721l.022-.062a6.036 6.036 0 0 0 .191-.662c.035-.128.06-.241.08-.335.037-.189.049-.301.049-.301s-.12.007-.318.038c-.199.03-.478.083-.796.18-.319.097-.68.238-1.038.444a4.208 4.208 0 0 0-.776.587 3.941 3.941 0 0 0-.239.255 3.329 3.329 0 0 0-.587 1.063 4.45 4.45 0 0 0-.219 1.07 5.02 5.02 0 0 0 .042 1.139ZM0 19.686s.006.162.034.432c.014.135.034.297.061.478a10.091 10.091 0 0 0 .212.925l.024.084.028.085a8.77 8.77 0 0 0 .34.87c.113.231.242.46.384.679a4.734 4.734 0 0 0 .609.737 3.19 3.19 0 0 0 .381.31c.172.12.345.216.516.295.347.155.683.237.977.28.294.04.546.042.725.034.179-.008.284-.025.284-.025s-.017-.123-.062-.327c-.048-.202-.113-.487-.22-.81a7.635 7.635 0 0 0-.424-1.06 5.289 5.289 0 0 0-.149-.276 4.321 4.321 0 0 0-.683-.946 5.484 5.484 0 0 0-.917-.804 6.203 6.203 0 0 0-1.805-.883C.118 19.707 0 19.686 0 19.686ZM4.845 20.233s.107.002.285-.014a4.81 4.81 0 0 0 1.647-.454 3.94 3.94 0 0 0 .956-.633c.682-.604 1.122-1.322 1.421-1.89l.053-.105.051-.1a5.484 5.484 0 0 0 .225-.505c.036-.088.065-.16.082-.208.019-.05.027-.076.027-.076s-.118-.015-.32-.021a5.826 5.826 0 0 0-.82.033 4.873 4.873 0 0 0-1.098.25c-.194.07-.394.154-.588.26a3.815 3.815 0 0 0-.566.383 2.82 2.82 0 0 0-.439.442 4.01 4.01 0 0 0-.34.497c-.096.17-.173.345-.242.516a3.942 3.942 0 0 0-.167.498 6.21 6.21 0 0 0-.13.637c-.01.06-.014.116-.019.166-.018.202-.018.324-.018.324ZM.703 14.299s-.007.04-.017.114c-.01.073-.025.181-.036.316a10.134 10.134 0 0 0-.024.931c.001.053.005.107.009.162.042.88.27 1.991.834 2.866a3.315 3.315 0 0 0 1.78 1.344c.282.094.53.14.707.164.178.023.284.025.284.025s.006-.124-.003-.332c-.002-.052-.007-.11-.009-.17a6.79 6.79 0 0 0-.058-.666c-.025-.17-.047-.35-.084-.538a6.965 6.965 0 0 0-.342-1.18c-.04-.1-.088-.2-.134-.299a4.149 4.149 0 0 0-.155-.293 5.226 5.226 0 0 0-.407-.604 5.737 5.737 0 0 0-.44-.511 6.3 6.3 0 0 0-1.61-1.195c-.183-.092-.295-.134-.295-.134ZM5.359 15.71s.104.02.282.038A4.906 4.906 0 0 0 7.35 15.6c.175-.048.352-.108.527-.182.18-.074.359-.162.533-.267a5.76 5.76 0 0 0 1.013-.79c.298-.275.531-.56.736-.81.1-.126.185-.247.262-.354a5.824 5.824 0 0 0 .312-.476c.025-.046.04-.07.04-.07s-.115-.037-.311-.079a5.72 5.72 0 0 0-.808-.114 5.057 5.057 0 0 0-1.131.045 4.14 4.14 0 0 0-.622.152c-.21.07-.425.158-.633.273a3.373 3.373 0 0 0-.936.783c-.126.15-.241.306-.34.462a5.85 5.85 0 0 0-.356.677c-.03.07-.055.138-.08.202a6.529 6.529 0 0 0-.178.573.892.892 0 0 0-.014.063l-.004.022ZM2.399 9.127l-.01.028-.027.081a8.61 8.61 0 0 0-.208.776c-.04.18-.072.383-.103.601a7.206 7.206 0 0 0-.057 1.45c.045.514.137 1.035.34 1.52.09.215.193.407.308.579.118.173.247.325.38.459.265.267.547.462.806.604a3.803 3.803 0 0 0 .938.364l.005-.022.013-.065a6.517 6.517 0 0 0 .094-.607l.02-.223a7.023 7.023 0 0 0 .036-.788 6.224 6.224 0 0 0-.112-1.22 4.259 4.259 0 0 0-.175-.636 5.442 5.442 0 0 0-.625-1.25 6.046 6.046 0 0 0-1.358-1.466c-.163-.124-.265-.185-.265-.185ZM6.716 11.358s.099.04.27.089a4.989 4.989 0 0 0 1.703.162 4.201 4.201 0 0 0 1.126-.25c.85-.326 1.537-.833 2.02-1.26a6.14 6.14 0 0 0 .326-.3c.048-.047.09-.092.131-.133a5.43 5.43 0 0 0 .113-.113c.134-.14.204-.229.204-.229s-.105-.056-.29-.133a5.693 5.693 0 0 0-.775-.258 4.865 4.865 0 0 0-1.119-.157 4.284 4.284 0 0 0-.977.096c-.11.026-.223.058-.335.096a3.307 3.307 0 0 0-.574.255 4.04 4.04 0 0 0-.914.738c-.125.136-.24.273-.34.405-.193.269-.34.516-.434.696-.09.182-.135.296-.135.296ZM5.034 4.357s-.083.14-.205.384l-.098.2c-.034.074-.067.155-.103.24-.07.17-.144.363-.216.57-.277.837-.486 1.947-.274 2.968a3.213 3.213 0 0 0 .48 1.145c.208.309.454.553.683.74.229.187.443.319.6.404.156.085.255.124.255.124s.05-.114.118-.311c.071-.196.166-.472.246-.804a7.033 7.033 0 0 0 .166-.82c.013-.099.03-.198.04-.3a4.97 4.97 0 0 0 .028-.632 4.36 4.36 0 0 0-.12-1.017 5.636 5.636 0 0 0-.312-.978c-.17-.4-.363-.744-.553-1.028a5.677 5.677 0 0 0-.509-.656c-.136-.15-.226-.23-.226-.23ZM8.86 7.323s.09.057.25.136a4.783 4.783 0 0 0 1.644.464c.36.035.756.033 1.155-.043.902-.164 1.66-.55 2.22-.879l.102-.062.098-.06a5.215 5.215 0 0 0 .46-.314c.16-.113.247-.186.247-.186s-.094-.074-.262-.184a5.83 5.83 0 0 0-.716-.394 4.915 4.915 0 0 0-1.069-.352 4.128 4.128 0 0 0-.64-.08 3.937 3.937 0 0 0-1 .092 4.152 4.152 0 0 0-.852.338 5.048 5.048 0 0 0-.699.481 6.571 6.571 0 0 0-.515.498 5.576 5.576 0 0 0-.422.545ZM8.506.14s-.109.122-.274.339a10.952 10.952 0 0 0-.435.645l-.081.133a8.837 8.837 0 0 0-.08.143c-.433.768-.833 1.83-.819 2.867.011.467.11.867.26 1.21.15.345.344.627.534.852.19.224.375.392.513.504.138.111.228.168.228.168s.072-.103.177-.283l.084-.15c.03-.055.06-.115.095-.176a6.909 6.909 0 0 0 .318-.664c.036-.083.073-.168.108-.258a5.83 5.83 0 0 0 .192-.566 5.076 5.076 0 0 0 .22-1.267c.01-.248 0-.49-.025-.723a5.781 5.781 0 0 0-.458-1.774 5.57 5.57 0 0 0-.377-.734C8.58.234 8.506.14 8.506.14ZM16.009 0s-.13-.003-.355.01a6.26 6.26 0 0 0-.405.036c-.078.01-.161.02-.247.035a6.989 6.989 0 0 0-.872.21c-.208.07-.426.153-.649.252-.056.025-.113.05-.168.077a7.208 7.208 0 0 0-.497.281c-.224.135-.435.3-.642.479-.092.08-.18.16-.262.247a4.88 4.88 0 0 0-.227.264c-.143.178-.271.357-.373.542a5.298 5.298 0 0 0-.268.538 5.23 5.23 0 0 0-.282.942c-.024.133-.039.25-.049.348-.02.193-.019.307-.019.307s.115-.015.306-.057c.095-.021.209-.049.336-.085a6.57 6.57 0 0 0 .909-.306c.17-.067.343-.146.517-.237.172-.094.352-.193.526-.31.088-.057.174-.12.258-.186l.128-.1c.043-.034.086-.07.128-.106.372-.33.69-.684.96-1.042a6.9 6.9 0 0 0 .373-.528c.114-.173.219-.338.31-.496.092-.16.17-.31.243-.44a7.988 7.988 0 0 0 .32-.674ZM37.49 44.396s-.032-.1-.067-.272a4.604 4.604 0 0 1-.02-1.682 4.22 4.22 0 0 1 .13-.535c.057-.183.13-.366.22-.545a4.507 4.507 0 0 1 .329-.57 5.125 5.125 0 0 1 .369-.502c.063-.076.126-.154.189-.226.064-.072.127-.142.19-.207l.188-.192c.062-.061.123-.12.182-.173l.172-.157a6.842 6.842 0 0 1 .429-.354c.153-.12.25-.18.25-.18s.047.107.11.295a5.488 5.488 0 0 1 .26 1.304 4.4 4.4 0 0 1 .001.583 3.752 3.752 0 0 1-.304 1.27c-.171.383-.42.718-.7.995a4.022 4.022 0 0 1-.434.377 5.848 5.848 0 0 1-.222.16 6.724 6.724 0 0 1-.529.308l-.096.047a7.089 7.089 0 0 1-.465.197 3.494 3.494 0 0 1-.098.033c-.054.018-.084.026-.084.026ZM44.451 46.634s-.15.069-.407.167a9.326 9.326 0 0 1-.213.079 9.293 9.293 0 0 1-.535.164l-.153.042-.16.038c-.11.025-.223.048-.34.07a5.787 5.787 0 0 1-.359.06c-.123.017-.249.031-.376.043-.128.011-.257.021-.388.023-.13.004-.263.003-.395-.001a4.612 4.612 0 0 1-.397-.028 5.506 5.506 0 0 1-.393-.058 3.825 3.825 0 0 1-.386-.09 3.44 3.44 0 0 1-.62-.246 3.155 3.155 0 0 1-.502-.323 3.48 3.48 0 0 1-.692-.728 3.823 3.823 0 0 1-.359-.622c-.073-.16-.105-.261-.105-.261l.086-.026.24-.065c.102-.027.226-.056.367-.085.07-.014.145-.03.223-.044a7.151 7.151 0 0 1 .512-.08 6.876 6.876 0 0 1 .888-.068c.42-.005.86.025 1.304.13.246.056.481.129.703.213a5.873 5.873 0 0 1 1.167.583 6.116 6.116 0 0 1 1.076.872c.142.147.214.241.214.241ZM41.764 42.638s-.051-.093-.117-.256a4.551 4.551 0 0 1-.213-.68c-.131-.565-.196-1.321.02-2.096a5.54 5.54 0 0 1 .487-1.18c.049-.087.098-.172.147-.254a7.076 7.076 0 0 1 .444-.666 8.06 8.06 0 0 1 .709-.833s.066.098.163.271c.097.174.223.425.34.734.229.614.418 1.465.204 2.38-.05.202-.117.4-.204.584a3.9 3.9 0 0 1-.298.52c-.112.16-.234.31-.357.45a5.388 5.388 0 0 1-.563.523c-.06.048-.12.093-.175.134a4.106 4.106 0 0 1-.302.205c-.175.108-.285.164-.285.164ZM49.02 43.588s-.132.096-.367.24a8.625 8.625 0 0 1-1.646.758 8.222 8.222 0 0 1-.36.11 7.707 7.707 0 0 1-.765.162 6.152 6.152 0 0 1-.396.043 4.771 4.771 0 0 1-.795-.007 3.22 3.22 0 0 1-1.206-.356 3.32 3.32 0 0 1-.455-.285 3.718 3.718 0 0 1-.83-.853c-.103-.145-.152-.238-.152-.238s.11-.06.302-.148c.097-.042.212-.096.345-.15a7.975 7.975 0 0 1 .446-.17c.161-.059.339-.115.526-.167a5.9 5.9 0 0 1 .589-.143 5.377 5.377 0 0 1 1.304-.107 6.143 6.143 0 0 1 2.492.681c.306.157.549.314.715.432.165.119.254.198.254.198ZM45.638 40.141s-.066-.081-.161-.23a4.598 4.598 0 0 1-.337-.631 4.575 4.575 0 0 1-.298-.932 4.322 4.322 0 0 1-.075-.547 3.77 3.77 0 0 1 .006-.585 5.663 5.663 0 0 1 .26-1.247c.06-.193.13-.37.2-.54.067-.17.141-.327.212-.471.068-.146.137-.276.203-.39a5.956 5.956 0 0 1 .338-.556s.084.083.211.237c.128.155.299.378.469.66.17.281.341.623.464 1.012.121.386.2.825.177 1.292a3.062 3.062 0 0 1-.029.31 3.434 3.434 0 0 1-.26.865c-.08.179-.169.35-.268.506a5.286 5.286 0 0 1-.303.432 4.951 4.951 0 0 1-.809.815ZM52.95 39.779s-.111.119-.318.3c-.103.089-.228.197-.374.312-.148.114-.315.236-.499.361a7.423 7.423 0 0 1-1.292.697c-.241.1-.494.184-.749.252-.257.066-.52.111-.782.135a3.336 3.336 0 0 1-1.253-.135 3.587 3.587 0 0 1-.914-.436 3.832 3.832 0 0 1-.56-.452 2.472 2.472 0 0 1-.194-.207l.07-.054a4.61 4.61 0 0 1 .2-.146c.085-.062.191-.131.311-.209.12-.079.256-.163.406-.247l.234-.13a8.161 8.161 0 0 1 .805-.375 7.058 7.058 0 0 1 .608-.204c.106-.03.214-.055.324-.077.108-.022.218-.042.331-.057a5.93 5.93 0 0 1 1.417-.012c.436.047.828.135 1.16.236.33.101.599.212.783.298.185.087.286.15.286.15ZM48.985 36.992s-.081-.068-.202-.198a4.717 4.717 0 0 1-.913-1.422 4.138 4.138 0 0 1-.277-1.1 5.66 5.66 0 0 1 .024-1.273c.05-.396.13-.758.215-1.067.045-.152.084-.296.126-.42.021-.063.042-.12.061-.174l.054-.15c.066-.18.116-.281.116-.281s.097.067.251.195a5.632 5.632 0 0 1 .917.978c.109.152.214.317.311.497a3.756 3.756 0 0 1 .416 1.24 3.18 3.18 0 0 1-.067 1.206 3.95 3.95 0 0 1-.17.544 3.817 3.817 0 0 1-.218.479c-.15.295-.317.53-.437.694-.06.082-.114.144-.15.187l-.057.066ZM56.11 35.325s-.091.135-.258.352c-.043.054-.088.114-.14.176-.053.062-.11.129-.172.198-.123.139-.26.293-.422.446-.318.31-.705.636-1.142.918a5.17 5.17 0 0 1-1.434.655 3.466 3.466 0 0 1-.658.11 3.35 3.35 0 0 1-.6-.019 3.552 3.552 0 0 1-.978-.265 3.956 3.956 0 0 1-.637-.345 2.577 2.577 0 0 1-.227-.169s.02-.024.059-.066c.038-.043.097-.102.17-.178a9.326 9.326 0 0 1 .827-.746c.073-.056.145-.116.223-.173.154-.116.324-.228.498-.34a5.476 5.476 0 0 1 .56-.31 5.46 5.46 0 0 1 1.332-.43 6.309 6.309 0 0 1 1.306-.101 6.258 6.258 0 0 1 1.382.191c.198.052.31.096.31.096ZM51.692 33.298s-.093-.053-.236-.158a4.743 4.743 0 0 1-1.162-1.234 4.038 4.038 0 0 1-.479-1.032 5.58 5.58 0 0 1-.214-1.254c-.013-.2-.013-.39-.013-.573.002-.182.015-.353.025-.513.01-.16.03-.305.046-.435.016-.131.034-.245.051-.339a61.294 61.294 0 0 1 .06-.298s.109.049.284.147c.175.098.42.247.68.449a4.9 4.9 0 0 1 .805.778 4.018 4.018 0 0 1 .513.821c.047.104.088.21.126.32.274.795.167 1.646-.028 2.275a5.036 5.036 0 0 1-.23.61c-.024.055-.05.105-.072.15a3.915 3.915 0 0 1-.156.286ZM58.383 30.372s-.015.037-.046.105c-.03.069-.076.167-.14.288-.064.12-.142.265-.235.425a8.71 8.71 0 0 1-.333.514 7.209 7.209 0 0 1-.952 1.11 5.37 5.37 0 0 1-.607.5c-.213.154-.444.29-.681.403a3.37 3.37 0 0 1-2.231.232 3.937 3.937 0 0 1-.69-.225c-.163-.07-.254-.124-.254-.124s.06-.11.178-.282l.098-.142a8.955 8.955 0 0 1 .406-.537c.436-.53 1.044-1.17 1.84-1.6a6.037 6.037 0 0 1 1.318-.514 6.244 6.244 0 0 1 2.007-.19c.205.014.322.037.322.037ZM53.662 29.179s-.1-.035-.26-.113a4.67 4.67 0 0 1-.622-.363 4.746 4.746 0 0 1-.753-.64 4.03 4.03 0 0 1-.663-.927 5.06 5.06 0 0 1-.264-.603c-.034-.1-.07-.2-.1-.298a7.762 7.762 0 0 1-.274-1.363c-.015-.16-.03-.306-.037-.438-.009-.131-.008-.246-.012-.342-.005-.192.004-.305.004-.305s.116.029.306.093a5.688 5.688 0 0 1 1.215.587 4.678 4.678 0 0 1 .705.565 4.16 4.16 0 0 1 .22.238c.141.168.274.353.392.558a3.252 3.252 0 0 1 .382 1.148c.03.195.04.385.041.569 0 .092 0 .182-.005.269a5.28 5.28 0 0 1-.022.254 4.591 4.591 0 0 1-.153.802 3.235 3.235 0 0 1-.1.309ZM59.69 25.096s-.033.158-.109.419c-.036.13-.09.285-.153.459a6.92 6.92 0 0 1-.23.565c-.18.403-.422.844-.726 1.262a6.674 6.674 0 0 1-.24.308 4.683 4.683 0 0 1-.856.813 3.257 3.257 0 0 1-1.14.532 3.576 3.576 0 0 1-1.01.1 3.958 3.958 0 0 1-.72-.097 2.619 2.619 0 0 1-.275-.076s.01-.03.032-.083c.022-.052.05-.13.091-.226.04-.097.092-.21.154-.338.063-.128.13-.271.213-.42a8.06 8.06 0 0 1 .132-.231c.045-.08.093-.16.143-.24.102-.164.218-.329.34-.495a5.644 5.644 0 0 1 .301-.368l.108-.12a5.34 5.34 0 0 1 1.385-1.045 5.947 5.947 0 0 1 .879-.386 6.56 6.56 0 0 1 .533-.161 5.76 5.76 0 0 1 .825-.152c.204-.021.324-.02.324-.02ZM54.828 24.774s-.106-.017-.279-.064a4.742 4.742 0 0 1-.68-.245 4.717 4.717 0 0 1-.856-.493 4.238 4.238 0 0 1-.634-.565 3.727 3.727 0 0 1-.192-.23 4.956 4.956 0 0 1-.37-.546 5.33 5.33 0 0 1-.29-.552 5.634 5.634 0 0 1-.268-.659l-.02-.062a5.62 5.62 0 0 1-.213-.724 5.307 5.307 0 0 1-.128-.636s.118.007.317.038c.199.03.477.083.796.18.319.097.68.238 1.038.444a4.227 4.227 0 0 1 .776.587 4.323 4.323 0 0 1 .238.255c.134.162.248.334.347.513.05.09.095.181.136.273a4.437 4.437 0 0 1 .324 1.348c.022.328.018.614-.003.816-.018.202-.04.322-.04.322ZM60 19.686s-.005.162-.034.432c-.014.135-.034.297-.061.478a10.466 10.466 0 0 1-.212.925l-.024.084a6.465 6.465 0 0 1-.086.257c-.082.23-.175.465-.283.697a6.18 6.18 0 0 1-.383.68 4.746 4.746 0 0 1-.609.737 3.544 3.544 0 0 1-.381.31c-.172.12-.345.216-.517.295a3.631 3.631 0 0 1-.977.28 3.945 3.945 0 0 1-.724.034c-.179-.008-.284-.025-.284-.025s.017-.123.062-.327c.048-.202.113-.487.221-.81.1-.325.243-.69.423-1.06.046-.092.096-.185.149-.276a4.546 4.546 0 0 1 .682-.946 4.96 4.96 0 0 1 .384-.38 6.198 6.198 0 0 1 2.338-1.307c.198-.057.316-.078.316-.078ZM55.154 20.233s-.106.002-.285-.014a4.81 4.81 0 0 1-1.646-.454 3.938 3.938 0 0 1-.956-.633c-.683-.604-1.122-1.322-1.421-1.89l-.053-.105-.051-.1a5.144 5.144 0 0 1-.225-.505c-.036-.088-.065-.16-.083-.208l-.026-.076s.118-.015.32-.021c.202-.007.487-.005.82.033.332.037.708.11 1.098.25.194.07.394.154.588.26.192.107.382.233.566.383a2.72 2.72 0 0 1 .439.442c.127.159.24.326.339.497.097.17.174.345.243.516.067.171.128.339.167.498a6.621 6.621 0 0 1 .13.637c.01.06.014.116.018.166.018.202.018.324.018.324ZM59.297 14.299s.007.04.017.114c.01.073.025.181.036.316a10.164 10.164 0 0 1 .026.776l-.003.155c0 .053-.005.107-.008.162-.043.88-.27 1.991-.834 2.866a3.319 3.319 0 0 1-1.78 1.344c-.282.094-.53.14-.708.164-.177.023-.284.025-.284.025s-.005-.124.004-.332c.002-.052.007-.11.009-.17a6.325 6.325 0 0 1 .058-.667c.025-.169.047-.35.084-.537a6.97 6.97 0 0 1 .342-1.18 5.834 5.834 0 0 1 .288-.592c.125-.217.263-.418.408-.604a5.76 5.76 0 0 1 .44-.511 6.28 6.28 0 0 1 1.61-1.195c.182-.092.295-.134.295-.134ZM54.64 15.71s-.103.02-.282.038a4.906 4.906 0 0 1-1.707-.148 4.1 4.1 0 0 1-.527-.182 3.834 3.834 0 0 1-.533-.267 5.754 5.754 0 0 1-1.013-.79c-.298-.275-.531-.56-.736-.81-.101-.126-.185-.247-.262-.354a5.636 5.636 0 0 1-.312-.476l-.04-.07s.115-.037.311-.079c.197-.042.476-.091.808-.114.333-.023.719-.02 1.13.045.205.034.412.083.623.152.21.07.425.158.633.273a3.392 3.392 0 0 1 .936.783c.126.15.241.306.34.462a5.708 5.708 0 0 1 .356.677c.03.07.055.138.08.202a6.123 6.123 0 0 1 .178.573.642.642 0 0 1 .014.063l.004.022ZM57.601 9.127l.01.028.027.081a8.803 8.803 0 0 1 .208.776c.04.18.072.383.103.601.066.434.085.939.057 1.45-.045.514-.138 1.035-.341 1.52a3.299 3.299 0 0 1-.307.579 3.345 3.345 0 0 1-.38.459 3.532 3.532 0 0 1-.806.604 3.816 3.816 0 0 1-.664.288c-.17.055-.274.076-.274.076l-.005-.022-.013-.065a5.271 5.271 0 0 1-.094-.607c-.008-.07-.013-.145-.02-.223a6.255 6.255 0 0 1-.036-.788 5.602 5.602 0 0 1 .061-.906c.015-.104.03-.21.051-.315.041-.21.098-.424.175-.636a5.464 5.464 0 0 1 .625-1.25 6.028 6.028 0 0 1 1.358-1.465c.163-.124.265-.185.265-.185ZM53.284 11.358s-.099.04-.27.089a4.992 4.992 0 0 1-1.703.162 4.217 4.217 0 0 1-.557-.082 4.353 4.353 0 0 1-.57-.169c-.85-.325-1.536-.832-2.019-1.26a6.14 6.14 0 0 1-.327-.3c-.047-.046-.09-.09-.13-.132a6.633 6.633 0 0 1-.113-.113c-.134-.14-.204-.229-.204-.229s.105-.056.29-.133c.186-.077.451-.175.775-.258.324-.083.708-.15 1.119-.157a4.28 4.28 0 0 1 .977.096c.11.026.223.058.335.096.201.067.394.153.574.255a4.047 4.047 0 0 1 .914.738c.125.136.24.273.34.405.193.269.34.516.434.696.09.182.135.296.135.296ZM54.966 4.357s.083.14.205.384l.098.2c.034.074.067.155.103.24.07.17.144.363.216.57.277.837.486 1.947.273 2.968a3.004 3.004 0 0 1-.197.627c-.083.19-.179.363-.283.517-.207.31-.453.554-.682.74a3.874 3.874 0 0 1-.855.53s-.05-.115-.118-.312a7.197 7.197 0 0 1-.246-.804 7.113 7.113 0 0 1-.166-.82c-.014-.099-.03-.198-.04-.3a4.98 4.98 0 0 1-.028-.632 4.26 4.26 0 0 1 .12-1.017 5.591 5.591 0 0 1 .311-.978c.17-.4.364-.744.554-1.028.189-.284.372-.506.509-.656.136-.15.226-.23.226-.23Z" fill="currentColor"></path><path d="M51.14 7.323s-.09.057-.25.136a4.78 4.78 0 0 1-1.644.464c-.36.035-.756.033-1.154-.043-.903-.164-1.662-.55-2.222-.879l-.1-.062-.099-.06a5.215 5.215 0 0 1-.46-.314c-.16-.113-.246-.186-.246-.186s.093-.074.261-.184a5.83 5.83 0 0 1 .716-.394c.304-.139.662-.27 1.069-.352.202-.04.418-.071.64-.08a3.94 3.94 0 0 1 1 .092 4.14 4.14 0 0 1 .851.338 5.106 5.106 0 0 1 .7.481 6.174 6.174 0 0 1 .642.647 5.153 5.153 0 0 1 .295.396Z" fill="currentCOlor"></path><path d="M51.494.14s.108.122.274.339a11.443 11.443 0 0 1 .516.778l.08.143c.432.768.833 1.83.819 2.867a3.19 3.19 0 0 1-.26 1.21c-.15.345-.345.627-.534.852a3.83 3.83 0 0 1-.514.504c-.138.111-.227.168-.227.168s-.072-.103-.177-.283a6.046 6.046 0 0 1-.084-.15c-.03-.055-.06-.115-.095-.176a6.685 6.685 0 0 1-.318-.664c-.036-.083-.073-.168-.108-.258a5.659 5.659 0 0 1-.192-.566 4.944 4.944 0 0 1-.196-1.99 5.807 5.807 0 0 1 .459-1.774c.132-.312.271-.562.377-.734.106-.172.18-.266.18-.266ZM43.992 0s.13-.003.354.01c.113.006.249.017.405.036.077.01.161.02.247.035a6.989 6.989 0 0 1 .872.21c.208.07.426.153.65.252.055.025.111.05.166.077a7.208 7.208 0 0 1 .498.281 4.74 4.74 0 0 1 .904.726c.08.087.156.175.228.264.142.178.27.357.372.542.105.183.194.364.268.538a5.158 5.158 0 0 1 .281.942c.025.133.04.25.05.348.02.193.019.307.019.307s-.116-.015-.306-.057a6.283 6.283 0 0 1-.336-.085 6.57 6.57 0 0 1-.909-.306 5.456 5.456 0 0 1-.518-.237 6.85 6.85 0 0 1-.526-.31 4.168 4.168 0 0 1-.258-.186l-.128-.1a3.694 3.694 0 0 1-.127-.106 7.139 7.139 0 0 1-.96-1.042 6.9 6.9 0 0 1-.373-.528 9.574 9.574 0 0 1-.31-.496c-.092-.16-.171-.31-.244-.44a7.879 7.879 0 0 1-.178-.352C44.04.123 43.992 0 43.992 0ZM35.335 29.179h-1.771v-6.067h-6.735v6.067h-1.762V16.054h1.762v5.643h6.735v-5.643h1.77V29.18ZM8.043 59.895h-.971v-3.326H3.379v3.326h-.965V52.7h.965v3.093h3.693V52.7h.97v7.195ZM10.623 59.895h-.93v-5.347h.93v5.347ZM9.617 53.13c0-.149.045-.274.136-.376.094-.102.231-.153.412-.153.182 0 .32.051.413.153.094.102.14.227.14.376a.517.517 0 0 1-.14.37c-.094.1-.231.149-.412.149-.182 0-.32-.05-.413-.149a.528.528 0 0 1-.136-.37ZM11.896 57.177c0-.834.196-1.496.589-1.987.392-.494.912-.74 1.559-.74.664 0 1.182.23 1.554.69l.046-.592h.85v5.218c0 .692-.21 1.237-.629 1.636-.416.399-.976.598-1.68.598-.393 0-.777-.082-1.152-.247-.376-.165-.662-.39-.86-.677l.483-.549c.399.485.887.727 1.463.727.453 0 .805-.125 1.057-.376.255-.25.382-.603.382-1.057v-.46c-.372.422-.88.633-1.524.633a1.877 1.877 0 0 1-1.55-.756c-.392-.505-.588-1.191-.588-2.061Zm.936.104c0 .603.125 1.077.377 1.423.252.343.604.514 1.056.514.587 0 1.018-.262 1.293-.786v-2.441c-.285-.51-.713-.766-1.283-.766-.452 0-.806.173-1.061.519-.255.346-.382.858-.382 1.537ZM18.833 55.195c.413-.497.95-.746 1.61-.746 1.15 0 1.73.638 1.74 1.913v3.533h-.93v-3.538c-.004-.386-.094-.67-.272-.855-.174-.185-.448-.277-.82-.277a1.36 1.36 0 0 0-.795.237 1.618 1.618 0 0 0-.533.623v3.81h-.93v-7.59h.93v2.89ZM30.418 56.57h-3.174v2.549h3.687v.776h-4.653V52.7h4.603v.78h-3.637v2.313h3.174v.776ZM32.868 54.548l.03.672c.416-.514.96-.77 1.63-.77 1.15 0 1.73.637 1.74 1.911v3.534h-.93v-3.538c-.003-.386-.094-.67-.272-.855-.174-.185-.447-.277-.82-.277a1.36 1.36 0 0 0-.794.237 1.618 1.618 0 0 0-.534.623v3.81h-.93v-5.347h.88ZM37.45 57.177c0-.834.197-1.496.59-1.987.392-.494.912-.74 1.559-.74.664 0 1.182.23 1.554.69l.046-.592h.85v5.218c0 .692-.21 1.237-.63 1.636-.415.399-.975.598-1.68.598-.392 0-.776-.082-1.151-.247-.376-.165-.663-.39-.86-.677l.483-.549c.398.485.886.727 1.463.727.453 0 .805-.125 1.057-.376.255-.25.382-.603.382-1.057v-.46c-.372.422-.88.633-1.524.633a1.878 1.878 0 0 1-1.55-.756c-.392-.505-.588-1.191-.588-2.061Zm.936.104c0 .603.126 1.077.378 1.423.251.343.603.514 1.056.514.587 0 1.018-.262 1.293-.786v-2.441c-.285-.51-.713-.766-1.283-.766-.453 0-.806.173-1.061.519-.255.346-.383.858-.383 1.537ZM44.468 59.895h-.93v-7.59h.93v7.59ZM46.974 59.895h-.931v-5.347h.93v5.347Zm-1.006-6.765c0-.149.045-.274.135-.376.094-.102.232-.153.413-.153.18 0 .318.051.412.153.094.102.141.227.141.376a.517.517 0 0 1-.14.37c-.095.1-.232.149-.413.149-.181 0-.319-.05-.413-.149a.528.528 0 0 1-.136-.37ZM51.637 58.477a.661.661 0 0 0-.287-.574c-.188-.138-.518-.257-.99-.355-.47-.1-.844-.218-1.123-.356-.275-.139-.48-.303-.613-.494a1.178 1.178 0 0 1-.197-.682c0-.438.188-.81.564-1.112.379-.303.862-.455 1.449-.455.617 0 1.116.157 1.499.47.385.313.578.713.578 1.2h-.936c0-.25-.109-.466-.327-.647-.214-.181-.486-.272-.814-.272-.34 0-.604.073-.795.218a.68.68 0 0 0-.287.568c0 .22.089.387.267.5.177.111.498.218.96.32.467.102.844.224 1.132.366.289.142.502.313.64.514.14.198.21.44.21.726 0 .478-.194.862-.583 1.152-.39.286-.894.43-1.514.43-.436 0-.822-.076-1.157-.228a1.9 1.9 0 0 1-.79-.632 1.532 1.532 0 0 1-.282-.885h.93c.018.307.142.55.373.732.235.177.543.267.926.267.352 0 .634-.07.845-.208.215-.142.322-.33.322-.563ZM54.71 55.195c.413-.497.95-.746 1.61-.746 1.15 0 1.73.638 1.74 1.913v3.533h-.93v-3.538c-.003-.386-.094-.67-.272-.855-.174-.185-.447-.277-.82-.277a1.36 1.36 0 0 0-.794.237 1.617 1.617 0 0 0-.533.623v3.81h-.931v-7.59h.93v2.89ZM31.045 44.467c-.572-.471-1.045-1.83-1.045-1.83s-.473 1.359-1.046 1.83c-.572.47-3.585 1.216-3.585 1.216s3.013.746 3.585 1.217c.573.47 1.046 1.829 1.046 1.829s.473-1.359 1.045-1.829c.573-.47 3.586-1.217 3.586-1.217s-3.013-.746-3.586-1.216Z" fill="currentColor"></path></svg><svg fill="none" aria-label="User symbol." id="user-icon" viewBox="0 0 19 20"><path d="M.745 16.322a9.395 9.395 0 0 1 2.037-3.003 9.494 9.494 0 0 1 3.02-2.025l.03-.013a6.207 6.207 0 0 1-2.598-5.05C3.234 2.79 6.04 0 9.5 0s6.266 2.789 6.266 6.231a6.215 6.215 0 0 1-2.597 5.053l.03.012a9.413 9.413 0 0 1 3.02 2.026 9.435 9.435 0 0 1 2.036 3.002 9.296 9.296 0 0 1 .745 3.47.198.198 0 0 1-.057.145.202.202 0 0 1-.145.061h-1.516a.201.201 0 0 1-.202-.196 7.47 7.47 0 0 0-2.219-5.133A7.55 7.55 0 0 0 9.5 12.462a7.55 7.55 0 0 0-5.361 2.209 7.47 7.47 0 0 0-2.219 5.133.2.2 0 0 1-.202.196H.202a.204.204 0 0 1-.188-.128.2.2 0 0 1-.014-.078 9.319 9.319 0 0 1 .745-3.472Zm8.755-5.77a4.33 4.33 0 0 0 3.072-1.266 4.281 4.281 0 0 0 1.274-3.055 4.281 4.281 0 0 0-1.274-3.055A4.33 4.33 0 0 0 9.5 1.91a4.33 4.33 0 0 0-3.072 1.266A4.282 4.282 0 0 0 5.154 6.23c0 1.153.453 2.239 1.274 3.055A4.33 4.33 0 0 0 9.5 10.553Z" fill="currentColor"></path></svg></svg>